<?xml version="1.0" encoding="utf-8"?>
<!-- Generator: Adobe Illustrator 18.1.1, SVG Export Plug-In . SVG Version: 6.00 Build 0)  -->
<svg version="1.1" id="Layer_1" xmlns="http://www.w3.org/2000/svg" xmlns:xlink="http://www.w3.org/1999/xlink" x="0px" y="0px"
	 viewBox="0 0 60 60" enable-background="new 0 0 60 60" xml:space="preserve">
<circle fill="#3DC1EE" cx="30" cy="30" r="27.9"/>
<g>
	<path fill="#FFFFFF" d="M15.9,26.4c-0.5,0.7-1.4,1.3-2.6,1.3c-2.1,0-3.7-1.6-3.7-3.7c0-2.1,1.6-3.7,3.7-3.7c0.9,0,1.8,0.3,2.4,1.1
		l-0.6,0.5C14.8,21.5,14,21,13.3,21c-1.8,0-2.9,1.4-2.9,3c0,1.6,1.1,3,2.9,3c0.7,0,1.5-0.2,2-1.1L15.9,26.4z"/>
	<path fill="#FFFFFF" d="M20.3,27.7c-2.1,0-3.7-1.6-3.7-3.7c0-2.1,1.6-3.7,3.7-3.7c2.1,0,3.7,1.6,3.7,3.7
		C23.9,26.2,22.4,27.7,20.3,27.7z M20.3,21c-1.8,0-2.9,1.4-2.9,3c0,1.6,1.1,3,2.9,3c1.8,0,2.9-1.4,2.9-3C23.2,22.4,22.1,21,20.3,21z
		"/>
	<path fill="#FFFFFF" d="M28.8,26.2l2.4-5.7h1.1v7h-0.7v-6.1h0L29,27.6h-0.4l-2.5-6.1h0v6.1h-0.7v-7h1.1L28.8,26.2z"/>
	<path fill="#FFFFFF" d="M34.9,27.6h-0.7v-7h0.7V27.6z"/>
	<path fill="#FFFFFF" d="M41.9,26.5L41.9,26.5l0-6h0.7v7h-0.9l-4.2-6h0v6h-0.7v-7h0.9L41.9,26.5z"/>
	<path fill="#FFFFFF" d="M49.7,21.8c-0.5-0.5-1.1-0.8-2-0.8c-1.8,0-2.9,1.4-2.9,3c0,1.6,1.1,3,2.9,3c0.7,0,1.4-0.2,1.9-0.5v-2.4H48
		v-0.7h2.4V27c-0.8,0.5-1.8,0.7-2.7,0.7c-2.1,0-3.7-1.6-3.7-3.7c0-2.1,1.6-3.7,3.7-3.7c1.1,0,1.9,0.3,2.5,0.9L49.7,21.8z"/>
	<path fill="#FFFFFF" d="M19.6,33.6c-0.3-0.5-0.8-0.7-1.4-0.7c-0.7,0-1.5,0.4-1.5,1.3c0,1.9,3.6,0.9,3.6,3.4c0,1.3-1.2,2-2.3,2
		c-0.9,0-1.7-0.3-2.2-1l0.6-0.5c0.3,0.5,0.9,0.9,1.6,0.9c0.7,0,1.5-0.5,1.5-1.3c0-2-3.6-0.9-3.6-3.5c0-1.4,1.1-2,2.3-2
		c0.8,0,1.4,0.2,2,0.9L19.6,33.6z"/>
	<path fill="#FFFFFF" d="M25,39.7c-2.1,0-3.7-1.6-3.7-3.7c0-2.1,1.6-3.7,3.7-3.7c2.1,0,3.7,1.6,3.7,3.7C28.6,38.1,27.1,39.7,25,39.7
		z M25,32.9c-1.8,0-2.9,1.4-2.9,3c0,1.6,1.1,3,2.9,3c1.8,0,2.9-1.4,2.9-3C27.9,34.3,26.8,32.9,25,32.9z"/>
	<path fill="#FFFFFF" d="M33.3,39.7c-2.1,0-3.7-1.6-3.7-3.7c0-2.1,1.6-3.7,3.7-3.7c2.1,0,3.7,1.6,3.7,3.7
		C36.9,38.1,35.4,39.7,33.3,39.7z M33.3,32.9c-1.8,0-2.9,1.4-2.9,3c0,1.6,1.1,3,2.9,3c1.8,0,2.9-1.4,2.9-3
		C36.2,34.3,35.1,32.9,33.3,32.9z"/>
	<path fill="#FFFFFF" d="M43.4,38.4L43.4,38.4l0-6h0.7v7h-0.9l-4.2-6h0v6h-0.7v-7h0.9L43.4,38.4z"/>
</g>
</svg>
